<svg width="16" height="16" viewBox="0 0 16 16" xmlns="http://www.w3.org/2000/svg">
<path fill-rule="evenodd" clip-rule="evenodd" d="M1.5 3.33301C1.5 3.05687 1.72386 2.83301 2 2.83301H14C14.2761 2.83301 14.5 3.05687 14.5 3.33301V13.9997C14.5 14.2758 14.2761 14.4997 14 14.4997H2C1.72386 14.4997 1.5 14.2758 1.5 13.9997V3.33301ZM2.5 3.83301V13.4997H13.5V3.83301H2.5Z"/>
<path fill-rule="evenodd" clip-rule="evenodd" d="M1.5 6C1.5 5.72386 1.72386 5.5 2 5.5H14C14.2761 5.5 14.5 5.72386 14.5 6C14.5 6.27614 14.2761 6.5 14 6.5H2C1.72386 6.5 1.5 6.27614 1.5 6Z"/>
<path fill-rule="evenodd" clip-rule="evenodd" d="M4.6665 1.5C4.94265 1.5 5.1665 1.72386 5.1665 2V3.33333C5.1665 3.60947 4.94265 3.83333 4.6665 3.83333C4.39036 3.83333 4.1665 3.60947 4.1665 3.33333V2C4.1665 1.72386 4.39036 1.5 4.6665 1.5Z"/>
<path fill-rule="evenodd" clip-rule="evenodd" d="M11.3335 1.5C11.6096 1.5 11.8335 1.72386 11.8335 2V3.33333C11.8335 3.60947 11.6096 3.83333 11.3335 3.83333C11.0574 3.83333 10.8335 3.60947 10.8335 3.33333V2C10.8335 1.72386 11.0574 1.5 11.3335 1.5Z"/>
</svg>
