<svg height="16" viewBox="0 0 16 16" width="16" xmlns="http://www.w3.org/2000/svg">
    <path d="m1.5 3.33301c0-.27614.22386-.5.5-.5h12c.2761 0 .5.22386.5.5v10.66669c0 .2761-.2239.5-.5.5h-12c-.27614 0-.5-.2239-.5-.5zm1 .5v9.66669h11v-9.66669z"/>
    <path d="m1.5 6c0-.27614.22386-.5.5-.5h12c.2761 0 .5.22386.5.5s-.2239.5-.5.5h-12c-.27614 0-.5-.22386-.5-.5z"/>
    <path d="m4.6665 1.5c.27615 0 .5.22386.5.5v1.33333c0 .27614-.22385.5-.5.5-.27614 0-.5-.22386-.5-.5v-1.33333c0-.27614.22386-.5.5-.5z"/>
    <path d="m11.3335 1.5c.2761 0 .5.22386.5.5v1.33333c0 .27614-.2239.5-.5.5s-.5-.22386-.5-.5v-1.33333c0-.27614.2239-.5.5-.5z"/>
</svg>
