<svg width="20" height="20" viewBox="0 0 20 20" xmlns="http://www.w3.org/2000/svg">
<path fill-rule="evenodd" clip-rule="evenodd" d="M14.5202 7.14645C14.7155 7.34171 14.7155 7.65829 14.5202 7.85355L8.33331 14.0404L5.47976 11.1869C5.2845 10.9916 5.2845 10.675 5.47976 10.4798C5.67502 10.2845 5.9916 10.2845 6.18687 10.4798L8.33331 12.6262L13.8131 7.14645C14.0084 6.95118 14.3249 6.95118 14.5202 7.14645Z"/>
<path fill-rule="evenodd" clip-rule="evenodd" d="M1.16669 9.99984C1.16669 5.12132 5.1215 1.1665 10 1.1665C14.8785 1.1665 18.8334 5.12132 18.8334 9.99984C18.8334 14.8784 14.8785 18.8332 10 18.8332C5.1215 18.8332 1.16669 14.8784 1.16669 9.99984ZM10 2.1665C5.67379 2.1665 2.16669 5.67361 2.16669 9.99984C2.16669 14.3261 5.67379 17.8332 10 17.8332C14.3263 17.8332 17.8334 14.3261 17.8334 9.99984C17.8334 5.67361 14.3263 2.1665 10 2.1665Z"/>
</svg>
