<svg width="24" height="24" viewBox="0 0 24 24" xmlns="http://www.w3.org/2000/svg">
<path fill-rule="evenodd" clip-rule="evenodd" d="M20.4706 3.53015C20.763 3.82254 20.763 4.2966 20.4706 4.58899L4.58868 20.4709C4.29629 20.7633 3.82223 20.7633 3.52984 20.4709C3.23745 20.1785 3.23745 19.7044 3.52984 19.412L19.4117 3.53015C19.7041 3.23776 20.1782 3.23776 20.4706 3.53015Z"/>
<path fill-rule="evenodd" clip-rule="evenodd" d="M20.4706 20.4698C20.1782 20.7622 19.7041 20.7622 19.4117 20.4698L3.52984 4.58795C3.23745 4.29556 3.23745 3.8215 3.52984 3.52911C3.82223 3.23672 4.29629 3.23672 4.58868 3.52911L20.4706 19.411C20.763 19.7034 20.763 20.1775 20.4706 20.4698Z"/>
</svg>
