<svg width="24" height="24" viewBox="0 0 24 24" xmlns="http://www.w3.org/2000/svg">
<path fill-rule="evenodd" clip-rule="evenodd" d="M0.118339 12.3231C0.349338 12.596 5.83929 19 12.0002 19C18.1612 19 23.6511 12.596 23.8821 12.3231C24.0271 12.1511 24.0401 11.9021 23.9111 11.7161C23.7221 11.4411 19.1802 5.00011 12.0002 5.00011C5.83929 5.00011 0.349338 11.4041 0.118339 11.6771C-0.0386585 11.8631 -0.0386584 12.1361 0.118339 12.3231ZM12.0002 18C7.06128 18 2.36532 13.29 1.17233 12.0001C2.36332 10.7091 7.05428 6.0001 12.0002 6.0001C17.7792 6.0001 21.8582 10.7031 22.8542 11.9731C21.7042 13.222 16.9812 18 12.0002 18ZM8.00028 12C8.00028 14.206 9.79427 16 12.0002 16C14.2062 16 16.0002 14.206 16.0002 12C16.0002 9.79405 14.2062 8.00006 12.0002 8.00006C9.79427 8.00006 8.00028 9.79405 8.00028 12ZM9.00027 12C9.00027 10.346 10.3463 9.00005 12.0002 9.00005C13.6542 9.00005 15.0002 10.346 15.0002 12C15.0002 13.654 13.6542 15 12.0002 15C10.3463 15 9.00027 13.654 9.00027 12Z"/>
</svg>
