<svg width="32" height="32" viewBox="0 0 32 32" xmlns="http://www.w3.org/2000/svg">
<path fill-rule="evenodd" clip-rule="evenodd" d="M24.1912 8.32249C24.4653 8.59768 24.4653 9.04386 24.1912 9.31905L9.30189 24.2667C9.02777 24.5419 8.58334 24.5419 8.30923 24.2667C8.03511 23.9915 8.03511 23.5453 8.30923 23.2702L23.1985 8.32249C23.4726 8.0473 23.9171 8.0473 24.1912 8.32249Z"/>
<path fill-rule="evenodd" clip-rule="evenodd" d="M24.1912 24.2658C23.9171 24.541 23.4726 24.541 23.1985 24.2658L8.30923 9.31809C8.03512 9.0429 8.03511 8.59673 8.30923 8.32154C8.58335 8.04635 9.02778 8.04635 9.30189 8.32154L24.1912 23.2692C24.4653 23.5444 24.4653 23.9906 24.1912 24.2658Z"/>
</svg>
