<svg width="16" height="16" viewBox="0 0 16 16" xmlns="http://www.w3.org/2000/svg">
    <path fill-rule="evenodd" clip-rule="evenodd" d="M12.833 5C12.833 4.72386 12.6092 4.5 12.333 4.5L3.66631 4.5C3.39017 4.5 3.16631 4.72386 3.16631 5V11C3.16631 11.2761 3.39017 11.5 3.66631 11.5H12.333C12.6092 11.5 12.833 11.2761 12.833 11V5ZM12.333 3.5C13.1614 3.5 13.833 4.17157 13.833 5V11C13.833 11.8284 13.1614 12.5 12.333 12.5H3.66631C2.83788 12.5 2.16631 11.8284 2.16631 11V5C2.16631 4.17157 2.83788 3.5 3.66631 3.5L12.333 3.5Z"/>
    <path fill-rule="evenodd" clip-rule="evenodd" d="M0.833008 12C0.833008 11.7239 1.05687 11.5 1.33301 11.5H14.6663C14.9424 11.5 15.1663 11.7239 15.1663 12C15.1663 12.2761 14.9424 12.5 14.6663 12.5H1.33301C1.05687 12.5 0.833008 12.2761 0.833008 12Z"/>
    <path fill-rule="evenodd" clip-rule="evenodd" d="M2.16699 11.3335C2.16699 11.0574 2.39085 10.8335 2.66699 10.8335H13.3337C13.6098 10.8335 13.8337 11.0574 13.8337 11.3335C13.8337 11.6096 13.6098 11.8335 13.3337 11.8335H2.66699C2.39085 11.8335 2.16699 11.6096 2.16699 11.3335Z"/>
</svg>
