<svg height="28" viewBox="0 0 28 28" width="28" xmlns="http://www.w3.org/2000/svg">
    <path d="m14 2.52326c3.7382 0 4.181.01428 5.6572.08163 1.365.06225 2.1063.29032 2.5996.48204.6535.25397 1.1199.55734 1.6097 1.04722.49.48993.7933.9563 1.0473 1.60978.1917.49332.4198 1.23461.4821 2.59959.0673 1.47624.0816 1.91908.0816 5.65718s-.0143 4.1809-.0816 5.6572c-.0623 1.365-.2904 2.1063-.4821 2.5996-.254.6535-.5573 1.1198-1.0472 1.6097s-.9563.7933-1.6098 1.0473c-.4933.1917-1.2346.4198-2.5996.482-1.476.0674-1.9188.0816-5.6572.0816s-4.18111-.0142-5.65719-.0816c-1.36499-.0622-2.10627-.2903-2.5996-.482-.65348-.254-1.11985-.5574-1.60973-1.0473-.48987-.4899-.7933-.9562-1.04727-1.6097-.19173-.4933-.4198-1.2346-.48204-2.5996-.06736-1.4763-.08164-1.9191-.08164-5.6572s.01428-4.18094.08164-5.65718c.06224-1.36498.29031-2.10627.48204-2.59959.25397-.65348.55734-1.11985 1.04727-1.60973.48988-.48993.95625-.7933 1.60973-1.04727.49333-.19172 1.23461-.41979 2.5996-.48204 1.47624-.06735 1.91909-.08163 5.65719-.08163zm0-2.52251232c-3.8022 0-4.27892.01611612-5.77217.08424852-1.49014.0679658-2.50785.3046508-3.39835.6507028-.92062.357781-1.70137.836481-2.47973 1.614781-.7783.77835-1.257 1.5591-1.614729 2.47972-.346109.8905-.582795 1.90821-.6507607 3.39834-.0681327 1.49324-.08424886 1.96996-.08424886 5.77216s.01611616 4.2789.08424886 5.7722c.0679657 1.4901.3046517 2.5078.6507607 3.3983.357729.9206.836429 1.7014 1.614729 2.4797.77836.7783 1.55911 1.257 2.47973 1.6147.8905.3462 1.90821.5828 3.39835.6508 1.49325.0681 1.96997.0843 5.77217.0843s4.2789-.0162 5.7722-.0843c1.4901-.068 2.5078-.3046 3.3983-.6508.9207-.3577 1.7014-.8364 2.4798-1.6147.7783-.7783 1.257-1.5591 1.6148-2.4797.346-.8905.5827-1.9082.6507-3.3983.0681-1.4933.0842-1.97.0842-5.7722s-.0161-4.27892-.0842-5.77216c-.068-1.49013-.3047-2.50784-.6507-3.39834-.3578-.92062-.8365-1.70137-1.6148-2.47972-.7784-.7783-1.5591-1.257-2.4798-1.614781-.8905-.346052-1.9082-.582737-3.3983-.6507028-1.4933-.0681324-1.97-.08424852-5.7722-.08424852zm.0067 6.81729232c-3.9706 0-7.18926 3.21866-7.18926 7.18916s3.21866 7.1892 7.18926 7.1892c3.9704 0 7.1891-3.2187 7.1891-7.1892s-3.2187-7.18916-7.1891-7.18916zm0 11.85586c-2.5774 0-4.66674-2.0894-4.66674-4.6667s2.08934-4.66665 4.66674-4.66665c2.5773 0 4.6666 2.08935 4.6666 4.66665s-2.0893 4.6667-4.6666 4.6667zm7.4724-10.46444c.9279 0 1.68-.75218 1.68-1.67997 0-.92785-.7521-1.68003-1.68-1.68003-.9278 0-1.68.75218-1.68 1.68003 0 .92779.7522 1.67997 1.68 1.67997z"/>
</svg>
