<svg height="28" viewBox="0 0 28 28" width="28" xmlns="http://www.w3.org/2000/svg"><path clip-rule="evenodd" d="m13.7104 21.4409h1.6174s.4853-.0556.7327-.315c.2283-.2409.2188-.6949.2188-.6949s-.0285-2.1124.9705-2.4182c.9895-.3057 2.2645 2.0383 3.6155 2.9371 1.0181.6856 1.7983.5373 1.7983.5373l3.606-.0463s1.8839-.1112.9895-1.5565c-.0761-.1205-.5233-1.0655-2.6831-3.0204-2.2645-2.0476-1.96-1.7141.7707-5.2533 1.6555-2.15877 2.3215-3.46514 2.1122-4.03031-.1998-.53737-1.4177-.3984-1.4177-.3984l-4.0627.0278s-.3044-.03706-.5233.09265c-.2188.12971-.3615.42619-.3615.42619s-.647 1.66771-1.5033 3.08527c-1.8078 2.9926-2.5309 3.1501-2.8259 2.9648-.685-.4355-.5137-1.7418-.5137-2.6683 0-2.89999.4471-4.10444-.8754-4.41946-.4376-.10191-.7707-.17603-1.8934-.1853-1.4462-.01853-2.6736 0-3.3681.33355-.46624.22236-.81828.7134-.59944.7412.2664.03706.87534.15751 1.19884.5837.4186.5559.3996 1.78815.3996 1.78815s.2379 3.40956-.5614 3.83576c-.5518.2872-1.30345-.3058-2.91141-3.0204-.82777-1.38979-1.44621-2.92779-1.44621-2.92779s-.12369-.28722-.33301-.44472c-.25689-.1853-.62796-.24089-.62796-.24089l-3.8534.02779s-.580384.01853-.789704.25942c-.190291.22236-.019029.66709-.019029.66709s3.025623 6.8839 6.441353 10.3583c3.13977 3.1872 6.69827 2.9741 6.69827 2.9741z" fill-rule="evenodd"/></svg>