<svg width="16" height="16" viewBox="0 0 16 16" xmlns="http://www.w3.org/2000/svg">
    <path fill-rule="evenodd" clip-rule="evenodd" d="M8.00033 1.66699C4.50252 1.66699 1.66699 4.50252 1.66699 8.00032C1.66699 11.4981 4.50252 14.3336 8.00033 14.3336C11.4982 14.3336 14.3337 11.4981 14.3337 8.00032C14.3337 4.50252 11.4982 1.66699 8.00033 1.66699ZM0.666992 8.00032C0.666992 3.95023 3.95024 0.666992 8.00033 0.666992C12.0504 0.666992 15.3337 3.95023 15.3337 8.00032C15.3337 12.0504 12.0504 15.3336 8.00033 15.3336C3.95024 15.3336 0.666992 12.0504 0.666992 8.00032Z"/>
    <path fill-rule="evenodd" clip-rule="evenodd" d="M8 2.83301C8.27614 2.83301 8.5 3.05687 8.5 3.33301V7.79257L11.0203 10.3128C11.2155 10.5081 11.2155 10.8247 11.0203 11.0199C10.825 11.2152 10.5084 11.2152 10.3131 11.0199L7.5 8.20678V3.33301C7.5 3.05687 7.72386 2.83301 8 2.83301Z"/>
</svg>
