<svg width="16" height="16" viewBox="0 0 16 16" xmlns="http://www.w3.org/2000/svg">
    <path fill-rule="evenodd" clip-rule="evenodd" d="M11.0204 5.9797C11.2156 6.17496 11.2156 6.49154 11.0204 6.68681L7.00016 10.707L4.97994 8.68681C4.78468 8.49154 4.78468 8.17496 4.97994 7.9797C5.1752 7.78444 5.49179 7.78444 5.68705 7.9797L7.00016 9.29281L10.3133 5.9797C10.5085 5.78444 10.8251 5.78444 11.0204 5.9797Z"/>
    <path fill-rule="evenodd" clip-rule="evenodd" d="M8.00016 1.83325C7.47117 1.83325 7.00573 2.10671 6.73797 2.52233C6.55612 2.8046 6.2636 3.00506 5.97991 3.12257C5.69621 3.24008 5.34762 3.30517 5.01944 3.23416C4.53621 3.1296 4.01373 3.26535 3.63967 3.63941C3.26562 4.01347 3.12987 4.53594 3.23442 5.01917C3.30543 5.34736 3.24034 5.69595 3.12283 5.97965C3.00531 6.26335 2.80485 6.55587 2.52257 6.73773C2.10695 7.00549 1.8335 7.47092 1.8335 7.99992C1.8335 8.52892 2.10695 8.99435 2.52257 9.26211C2.80484 9.44396 3.00531 9.73648 3.12282 10.0202C3.24033 10.3039 3.30541 10.6525 3.23441 10.9806C3.12985 11.4639 3.2656 11.9863 3.63966 12.3604C4.01371 12.7345 4.53619 12.8702 5.01941 12.7657C5.3476 12.6946 5.6962 12.7597 5.97989 12.8773C6.26359 12.9948 6.55612 13.1952 6.73797 13.4775C7.00573 13.8931 7.47117 14.1666 8.00016 14.1666C8.52916 14.1666 8.9946 13.8931 9.26236 13.4775C9.44421 13.1952 9.73672 12.9948 10.0204 12.8773C10.3041 12.7598 10.6527 12.6947 10.9809 12.7657C11.4641 12.8702 11.9866 12.7345 12.3606 12.3604C12.7347 11.9864 12.8705 11.4639 12.7659 10.9807C12.6949 10.6525 12.76 10.3039 12.8775 10.0202C12.995 9.73649 13.1955 9.44397 13.4778 9.26211C13.8934 8.99435 14.1668 8.52892 14.1668 7.99992C14.1668 7.47092 13.8934 7.00549 13.4778 6.73772C13.1955 6.55587 12.995 6.26336 12.8775 5.97966C12.76 5.69597 12.6949 5.34738 12.7659 5.0192C12.8705 4.53597 12.7347 4.01349 12.3607 3.63943C11.9866 3.26537 11.4641 3.12962 10.9809 3.23418C10.6527 3.30518 10.3041 3.24009 10.0204 3.12258C9.73673 3.00507 9.44421 2.8046 9.26236 2.52233C8.99459 2.10671 8.52916 1.83325 8.00016 1.83325ZM5.89732 1.98075C6.34138 1.29147 7.11711 0.833252 8.00016 0.833252C8.88322 0.833252 9.65894 1.29147 10.103 1.98075C10.1437 2.04392 10.2466 2.13388 10.4031 2.1987C10.5596 2.26353 10.696 2.27268 10.7694 2.25679C11.5708 2.0834 12.4434 2.30791 13.0678 2.93232C13.6922 3.55674 13.9167 4.42928 13.7433 5.23067C13.7274 5.30412 13.7366 5.44049 13.8014 5.59698C13.8662 5.75348 13.9562 5.85638 14.0193 5.89708C14.7086 6.34114 15.1668 7.11687 15.1668 7.99992C15.1668 8.88297 14.7086 9.6587 14.0193 10.1028C13.9562 10.1435 13.8662 10.2464 13.8014 10.4029C13.7365 10.5594 13.7274 10.6958 13.7433 10.7692C13.9167 11.5706 13.6922 12.4431 13.0678 13.0675C12.4433 13.6919 11.5708 13.9165 10.7694 13.7431C10.696 13.7272 10.5596 13.7363 10.4031 13.8011C10.2466 13.866 10.1437 13.9559 10.103 14.0191C9.65894 14.7084 8.88322 15.1666 8.00016 15.1666C7.11711 15.1666 6.34138 14.7084 5.89732 14.0191C5.85662 13.9559 5.75371 13.866 5.59721 13.8011C5.4407 13.7363 5.30433 13.7271 5.23088 13.743C4.42949 13.9164 3.55696 13.6919 2.93255 13.0675C2.30813 12.4431 2.08362 11.5706 2.25702 10.7692C2.27291 10.6957 2.26376 10.5593 2.19894 10.4029C2.13412 10.2464 2.04416 10.1435 1.98099 10.1028C1.29171 9.6587 0.833496 8.88297 0.833496 7.99992C0.833496 7.11687 1.29171 6.34114 1.98099 5.89708C2.04416 5.85638 2.13412 5.75347 2.19895 5.59697C2.26377 5.44046 2.27293 5.30409 2.25704 5.23064C2.08364 4.42925 2.30815 3.55672 2.93257 2.93231C3.55698 2.30789 4.42952 2.08338 5.23092 2.25678C5.30436 2.27267 5.44073 2.26351 5.59723 2.19869C5.75372 2.13387 5.85662 2.04392 5.89732 1.98075Z"/>
</svg>
