<svg width="12" height="12" viewBox="0 0 12 12" fill="none" xmlns="http://www.w3.org/2000/svg">
<path d="M10.7422 2.25489C10.6444 2.26996 10.5541 2.3194 10.4856 2.39538C8.19934 4.83692 7.22198 6.17264 4.93684 8.62857L2.23187 6.3474C2.18681 6.30727 2.13475 6.27701 2.07869 6.25838C2.02264 6.23975 1.96367 6.2331 1.9052 6.23881C1.84672 6.24453 1.78988 6.2625 1.73793 6.29169C1.68599 6.32088 1.63996 6.36071 1.60251 6.4089C1.56505 6.45709 1.53689 6.51269 1.51965 6.57251C1.50241 6.63233 1.49643 6.69519 1.50205 6.75749C1.50766 6.81978 1.52477 6.88027 1.55239 6.9355C1.58001 6.99072 1.61759 7.0396 1.66298 7.0793L4.68709 9.64141C4.77218 9.71642 4.88045 9.75496 4.99077 9.74949C5.10109 9.74402 5.20554 9.69495 5.28373 9.61184C7.66089 7.0732 8.75097 5.58739 11.1099 3.06813C11.1788 2.99922 11.2252 2.90869 11.2425 2.80972C11.2598 2.71075 11.247 2.6085 11.206 2.51781C11.165 2.42712 11.0979 2.35273 11.0145 2.30545C10.9311 2.25817 10.8357 2.24045 10.7422 2.25489Z" fill="#A8D741"/>
</svg>
