<svg width="382" height="240" viewBox="0 0 382 240" fill="none" xmlns="http://www.w3.org/2000/svg">
    <path d="M391.75 46.431C396.618 27.5796 397.7 14.3101 394.996 6.62258C392.508 -1.19008 382.546 -7.43266 365.108 -12.1051L353.568 -15.1972L356.11 -24.6855L542.543 25.2688L540 34.7571L527.947 31.5276C511.877 27.2216 500.368 27.4358 493.419 32.1704C486.641 36.9507 480.458 49.7694 474.869 70.6266L413.577 299.371C407.851 320.741 406.813 335.214 410.464 342.788C414.16 350.192 423.958 356.024 439.857 360.284L451.91 363.514L449.368 373.002L262.936 323.048L265.478 313.559L277.018 316.652C293.259 321.003 304.706 320.681 311.359 315.684C318.228 310.561 324.434 297.657 329.977 276.971L380.55 88.2308L206.437 247.716C201.993 264.3 200.838 276.816 202.972 285.267C205.151 293.547 215.301 300.115 233.423 304.97L245.476 308.2L242.933 317.688L56.5009 267.734L59.0433 258.245L70.5831 261.338C86.8244 265.689 98.3568 265.39 105.181 260.438C112.05 255.316 118.256 242.412 123.799 221.726L185.091 -7.01916C190.68 -27.8763 192.247 -41.9319 189.793 -49.1859C187.339 -56.4398 176.966 -62.5176 158.673 -67.4191L147.133 -70.5112L149.676 -79.9995L336.108 -30.0451L333.566 -20.5568L321.513 -23.7864C305.785 -28.0008 294.354 -27.3988 287.222 -21.9804C280.136 -16.7331 273.959 -4.27915 268.691 15.3813L217.637 205.917L391.75 46.431Z" fill="#F4AFB8"/>
</svg>
