<svg width="603" height="240" viewBox="0 0 603 240" fill="none" xmlns="http://www.w3.org/2000/svg">
    <path d="M548.286 213.443L703.993 9.44668L845.411 47.3395L842.869 56.8278L831.596 53.8073C821.349 51.0615 812.67 50.6599 805.559 52.6025C800.648 53.8519 796.156 56.9541 792.082 61.9094C789.104 65.509 785.301 75.9423 780.675 93.2093L719.245 322.467C714.481 340.247 712.443 351.611 713.131 356.559C713.818 361.508 716.608 366.47 721.499 371.445C726.435 376.249 733.771 379.955 743.506 382.564L754.779 385.584L752.236 395.073L570.853 346.471L573.395 336.983L584.668 340.003C594.915 342.749 603.594 343.151 610.705 341.208C615.616 339.959 620.131 336.771 624.251 331.645C627.229 328.045 631.054 317.526 635.727 300.088L704.783 42.3657L486.566 323.886L480.417 322.239L429.527 -28.9152L363.907 215.985C359.326 233.082 356.935 243.71 356.736 247.871C356.666 257.014 359.57 265.305 365.448 272.743C371.543 280.057 382.532 285.841 398.416 290.097L395.874 299.586L277.001 267.734L279.543 258.245L283.13 259.207C290.77 261.437 298.264 262.162 305.612 261.383C313.006 260.432 319.006 258.192 323.613 254.662C328.22 251.133 332.54 245.602 336.571 238.07C337.417 236.281 339.924 227.608 344.092 212.051L403.048 -7.9754C407.766 -25.5843 409.759 -36.7775 409.025 -41.5549C408.338 -46.5033 405.525 -51.3796 400.589 -56.1838C395.698 -61.159 388.385 -64.9509 378.65 -67.5594L367.633 -70.5112L370.176 -79.9995L512.106 -41.9694L548.286 213.443Z" fill="#F4DC5D"/>
</svg>
