<svg width="603" height="240" viewBox="0 0 603 240" fill="none" xmlns="http://www.w3.org/2000/svg">
    <path d="M548.786 213.443L704.493 9.44668L845.911 47.3395L843.369 56.8278L832.096 53.8073C821.849 51.0615 813.17 50.6599 806.059 52.6025C801.148 53.8519 796.656 56.9541 792.582 61.9094C789.604 65.509 785.801 75.9423 781.175 93.2093L719.745 322.467C714.981 340.247 712.943 351.611 713.631 356.559C714.318 361.508 717.108 366.47 721.999 371.445C726.935 376.249 734.271 379.955 744.006 382.564L755.279 385.584L752.736 395.073L571.353 346.471L573.895 336.983L585.168 340.003C595.415 342.749 604.094 343.151 611.205 341.208C616.116 339.959 620.631 336.771 624.751 331.645C627.729 328.045 631.554 317.526 636.227 300.088L705.283 42.3657L487.066 323.886L480.917 322.239L430.027 -28.9152L364.407 215.985C359.826 233.082 357.435 243.71 357.236 247.871C357.166 257.014 360.07 265.305 365.948 272.743C372.043 280.057 383.032 285.841 398.916 290.097L396.374 299.586L277.501 267.734L280.043 258.245L283.63 259.207C291.27 261.437 298.764 262.162 306.112 261.383C313.506 260.432 319.506 258.192 324.113 254.662C328.72 251.133 333.04 245.602 337.071 238.07C337.917 236.281 340.424 227.608 344.592 212.051L403.548 -7.9754C408.266 -25.5843 410.259 -36.7775 409.525 -41.5549C408.838 -46.5033 406.025 -51.3796 401.089 -56.1838C396.198 -61.159 388.885 -64.9509 379.15 -67.5594L368.133 -70.5112L370.676 -79.9995L512.606 -41.9694L548.786 213.443Z" fill="#A8D741"/>
</svg>
