<svg width="48" height="49" viewBox="0 0 48 49" fill="none" xmlns="http://www.w3.org/2000/svg">
<mask id="mask0_117_10179" style="mask-type:alpha" maskUnits="userSpaceOnUse" x="0" y="0" width="48" height="49">
<circle cx="24" cy="24.5" r="24" fill="white"/>
</mask>
<g mask="url(#mask0_117_10179)">
<circle cx="24" cy="24.5" r="23.5" stroke="#F9F9F9" stroke-opacity="0.16"/>
<path d="M36.13 20.1343L34.8177 19.3681C34.0019 11.9981 30.1714 7.94827 24 7.94827C17.8285 7.94827 13.998 11.9981 13.1822 19.3681L11.8699 20.1343C11.6926 20.2437 11.5862 20.4261 11.5862 20.6086V28.6353C11.5862 28.7812 11.6571 28.9271 11.7635 29.0366L14.3527 31.5541V34.2539C14.3527 34.3999 14.3882 34.5093 14.4946 34.6188L20.2758 41.6969C20.3822 41.8063 20.5241 41.8793 20.666 41.8793H24H27.334C27.4758 41.8793 27.6532 41.8063 27.7241 41.6969L33.5054 34.6553C33.5763 34.5458 33.6473 34.4364 33.6473 34.2904V31.5905L36.2364 29.0731C36.3428 28.9636 36.4138 28.8177 36.4138 28.6717V20.645C36.3783 20.4261 36.3074 20.2437 36.13 20.1343ZM31.3418 24.7678C30.6325 25.1692 27.7241 26.5191 24 26.5191C20.2758 26.5191 17.3675 25.1327 16.6581 24.7678C16.6226 19.3316 15.665 16.0479 15.3103 14.9534C15.3458 14.8804 15.3813 14.8074 15.4167 14.698C17.332 13.1656 19.3891 12.5089 20.1694 12.29L21.5882 18.4924C21.6236 18.6749 21.7655 18.7843 21.9428 18.7843H24H26.0571C26.2345 18.7843 26.3763 18.6749 26.4118 18.4924L27.8305 12.29C28.6108 12.5089 30.668 13.2021 32.5832 14.698C32.6187 14.771 32.6542 14.8439 32.6896 14.9534C32.3349 16.0479 31.3773 19.3316 31.3418 24.7678ZM31.2709 25.6435L31.0226 27.2123C30.597 27.3948 29.3556 27.942 27.5468 28.2339L26.4473 27.1029C28.6817 26.7745 30.3842 26.0813 31.2709 25.6435ZM21.5527 27.1029L20.4532 28.2339C18.6443 27.942 17.4029 27.4313 16.9773 27.2123L16.729 25.6435C17.6157 26.0813 19.3182 26.7745 21.5527 27.1029ZM24 9.04282C26.731 9.04282 29.9231 9.91846 31.9448 13.3845C29.7813 11.9981 27.7596 11.5603 27.6532 11.5238C27.4758 11.4873 27.2985 11.5968 27.2276 11.7792L25.7734 18.0546H24H22.2266L20.7724 11.7792C20.7369 11.5968 20.5596 11.4508 20.3468 11.5238C20.2404 11.5603 18.2542 11.9616 16.0551 13.3845C18.0768 9.91846 21.2689 9.04282 24 9.04282ZM14.9202 16.1209C15.3458 17.6898 15.9487 20.645 15.9487 24.9868V25.0232L16.3034 27.4677C16.3034 27.5772 16.3744 27.6866 16.4808 27.7231C16.5517 27.7596 18.0414 28.5623 20.5241 28.9271H20.5596C20.666 28.9271 20.7369 28.8907 20.8079 28.8177L22.4394 27.1759C22.9359 27.2123 23.4325 27.2488 23.9645 27.2488C24.4965 27.2488 24.9931 27.2123 25.4896 27.1759L27.1212 28.8177C27.1921 28.8907 27.263 28.9271 27.3694 28.9271H27.4049C29.8877 28.5623 31.3773 27.7596 31.4482 27.7231C31.5547 27.6866 31.6256 27.5772 31.6256 27.4677L31.9803 25.0232V24.9868C31.9803 20.6815 32.5832 17.6898 33.0088 16.1209C33.3281 17.179 33.5409 18.383 33.6827 19.7694C33.6827 19.8789 33.7537 19.9883 33.8246 20.0613L32.7251 30.8608L32.6542 30.8973C32.5478 31.0068 32.4768 31.1527 32.4768 31.2987L28.5753 34.7283C28.398 34.8377 27.7596 35.4215 27.2985 37.1727H24H20.595C20.134 35.4215 19.4955 34.8377 19.3182 34.7283L15.4167 31.2987C15.4167 31.1527 15.3458 31.0068 15.2394 30.8973L15.1684 30.8608L14.0689 20.0613C14.1399 19.9883 14.1753 19.8789 14.2108 19.7694C14.3527 18.383 14.601 17.179 14.9202 16.1209ZM12.6857 28.4163V20.9369L13.4305 20.4991L14.4236 30.0947L12.6857 28.4163ZM15.4167 34.0715V32.2838L18.8926 35.312L18.9281 35.3485C18.9281 35.3485 20.063 36.1877 20.2758 40.0186L15.4167 34.0715ZM21.0207 40.7848C20.9852 39.6172 20.8788 38.7051 20.7724 37.9389H24H27.2276C27.0857 38.7051 26.9793 39.6537 26.9793 40.7848H24H21.0207ZM27.7241 40.0186C27.9369 36.2241 29.0719 35.3485 29.0719 35.3485L29.1074 35.312L32.5832 32.2838V34.0715L27.7241 40.0186ZM35.3143 28.4163L33.5763 30.0947L34.5694 20.4991L35.3143 20.9369V28.4163Z" fill="#F9F9F9"/>
</g>
</svg>
