<svg width="48" height="48" viewBox="0 0 48 48" fill="none" xmlns="http://www.w3.org/2000/svg">
    <path d="M36.13 19.6343L34.8177 18.8681C34.0019 11.4981 30.1714 7.44827 24 7.44827C17.8285 7.44827 13.998 11.4981 13.1822 18.8681L11.8699 19.6343C11.6926 19.7437 11.5862 19.9261 11.5862 20.1086V28.1353C11.5862 28.2812 11.6571 28.4271 11.7635 28.5366L14.3527 31.0541V33.7539C14.3527 33.8999 14.3882 34.0093 14.4946 34.1188L20.2758 41.1969C20.3822 41.3063 20.5241 41.3793 20.666 41.3793H24H27.334C27.4758 41.3793 27.6532 41.3063 27.7241 41.1969L33.5054 34.1553C33.5763 34.0458 33.6473 33.9364 33.6473 33.7904V31.0905L36.2364 28.5731C36.3428 28.4636 36.4138 28.3177 36.4138 28.1717V20.145C36.3783 19.9261 36.3074 19.7437 36.13 19.6343ZM31.3418 24.2678C30.6325 24.6692 27.7241 26.0191 24 26.0191C20.2758 26.0191 17.3675 24.6327 16.6581 24.2678C16.6226 18.8316 15.665 15.5479 15.3103 14.4534C15.3458 14.3804 15.3813 14.3074 15.4167 14.198C17.332 12.6656 19.3891 12.0089 20.1694 11.79L21.5882 17.9924C21.6236 18.1749 21.7655 18.2843 21.9428 18.2843H24H26.0571C26.2345 18.2843 26.3763 18.1749 26.4118 17.9924L27.8305 11.79C28.6108 12.0089 30.668 12.7021 32.5832 14.198C32.6187 14.271 32.6542 14.3439 32.6896 14.4534C32.3349 15.5479 31.3773 18.8316 31.3418 24.2678ZM31.2709 25.1435L31.0226 26.7123C30.597 26.8948 29.3556 27.442 27.5468 27.7339L26.4473 26.6029C28.6817 26.2745 30.3842 25.5813 31.2709 25.1435ZM21.5527 26.6029L20.4532 27.7339C18.6443 27.442 17.4029 26.9313 16.9773 26.7123L16.729 25.1435C17.6157 25.5813 19.3182 26.2745 21.5527 26.6029ZM24 8.54282C26.731 8.54282 29.9231 9.41846 31.9448 12.8845C29.7813 11.4981 27.7596 11.0603 27.6532 11.0238C27.4758 10.9873 27.2985 11.0968 27.2276 11.2792L25.7734 17.5546H24H22.2266L20.7724 11.2792C20.7369 11.0968 20.5596 10.9508 20.3468 11.0238C20.2404 11.0603 18.2542 11.4616 16.0551 12.8845C18.0768 9.41846 21.2689 8.54282 24 8.54282ZM14.9202 15.6209C15.3458 17.1898 15.9487 20.145 15.9487 24.4868V24.5232L16.3034 26.9677C16.3034 27.0772 16.3744 27.1867 16.4808 27.2231C16.5517 27.2596 18.0414 28.0623 20.5241 28.4271H20.5596C20.666 28.4271 20.7369 28.3907 20.8079 28.3177L22.4394 26.6759C22.9359 26.7123 23.4325 26.7488 23.9645 26.7488C24.4965 26.7488 24.9931 26.7123 25.4896 26.6759L27.1212 28.3177C27.1921 28.3907 27.263 28.4271 27.3694 28.4271H27.4049C29.8877 28.0623 31.3773 27.2596 31.4482 27.2231C31.5547 27.1867 31.6256 27.0772 31.6256 26.9677L31.9803 24.5232V24.4868C31.9803 20.1815 32.5832 17.1898 33.0088 15.6209C33.3281 16.679 33.5409 17.883 33.6827 19.2694C33.6827 19.3789 33.7537 19.4883 33.8246 19.5613L32.7251 30.3608L32.6542 30.3973C32.5478 30.5068 32.4768 30.6527 32.4768 30.7987L28.5753 34.2283C28.398 34.3377 27.7596 34.9215 27.2985 36.6727H24H20.595C20.134 34.9215 19.4955 34.3377 19.3182 34.2283L15.4167 30.7987C15.4167 30.6527 15.3458 30.5068 15.2394 30.3973L15.1684 30.3608L14.0689 19.5613C14.1399 19.4883 14.1753 19.3789 14.2108 19.2694C14.3527 17.883 14.601 16.679 14.9202 15.6209ZM12.6857 27.9163V20.4369L13.4305 19.9991L14.4236 29.5947L12.6857 27.9163ZM15.4167 33.5715V31.7838L18.8926 34.812L18.9281 34.8485C18.9281 34.8485 20.063 35.6877 20.2758 39.5186L15.4167 33.5715ZM21.0207 40.2848C20.9852 39.1172 20.8788 38.2051 20.7724 37.4389H24H27.2276C27.0857 38.2051 26.9793 39.1537 26.9793 40.2848H24H21.0207ZM27.7241 39.5186C27.9369 35.7241 29.0719 34.8485 29.0719 34.8485L29.1074 34.812L32.5832 31.7838V33.5715L27.7241 39.5186ZM35.3143 27.9163L33.5763 29.5947L34.5694 19.9991L35.3143 20.4369V27.9163Z" fill="#F9F9F9"/>
    <path fill-rule="evenodd" clip-rule="evenodd" d="M24 47C36.7025 47 47 36.7025 47 24C47 11.2975 36.7025 1 24 1C11.2975 1 1 11.2975 1 24C1 36.7025 11.2975 47 24 47ZM24 48C37.2548 48 48 37.2548 48 24C48 10.7452 37.2548 0 24 0C10.7452 0 0 10.7452 0 24C0 37.2548 10.7452 48 24 48Z" fill="#F9F9F9" fill-opacity="0.16"/>
</svg>
