<svg width="382" height="240" viewBox="0 0 382 240" fill="none" xmlns="http://www.w3.org/2000/svg">
    <path d="M226.667 144.705L200.831 241.126C195.792 259.932 193.72 272.111 194.614 277.665C195.725 283.093 198.797 288.039 203.831 292.503C209.036 297.012 219.502 301.374 235.231 305.589L232.688 315.077L56.0009 267.734L58.5433 258.245C74.6136 262.552 85.8589 264.007 92.2794 262.613C98.9166 261.093 103.988 258.237 107.493 254.046C111.169 249.9 115.526 238.425 120.565 219.619L181.033 -6.04863C186.072 -24.8543 188.036 -36.9712 186.925 -42.3994C186.031 -47.9528 183.067 -52.9614 178.033 -57.4252C172.999 -61.889 162.533 -66.251 146.633 -70.5112L149.176 -79.9995L300.732 -39.3901C350.653 -26.014 384.087 -7.52713 401.035 16.0705C417.982 39.668 422.883 64.8017 415.737 91.4715C409.69 114.038 397.505 131.479 379.18 143.793C360.855 156.107 338.605 161.872 312.429 161.088C294.746 160.747 266.159 155.286 226.667 144.705ZM272.293 -25.5719L232.027 124.702C237.577 126.556 241.805 127.872 244.712 128.651C265.569 134.239 283.288 132.391 297.87 123.105C312.497 113.648 323.292 95.927 330.255 69.941C337.172 44.126 336.593 23.7232 328.516 8.7326C320.439 -6.25799 305.203 -16.7538 282.807 -22.7547L272.293 -25.5719Z" fill="#67B6FF"/>
</svg>
