<svg width="426" height="240" viewBox="0 0 426 240" fill="none" xmlns="http://www.w3.org/2000/svg">
    <path d="M309.6 -50.8038L489.365 -2.63597L486.822 6.85233C466.899 1.88044 453.561 1.055 446.808 4.37601C440.1 7.52607 433.903 17.3178 428.217 33.7513C467.538 44.2873 496.242 56.8342 514.33 71.3922C532.417 85.9501 546.276 104.322 555.906 126.509C565.707 148.741 567.103 172.936 560.094 199.093C551.299 231.917 531.396 257.642 500.386 276.269C469.376 294.895 423.354 296.031 362.321 279.678C359.069 291.816 358.055 301.072 359.278 307.447C360.673 313.867 363.808 318.922 368.683 322.61C373.604 326.128 383.62 330.46 398.732 335.609L396.19 345.097L216.425 296.929L218.967 287.441C240.304 292.609 254.509 292.933 261.583 288.416C268.703 283.727 274.416 273.348 278.722 257.277C238.375 246.466 208.259 232.35 188.374 214.928C168.66 197.552 155.338 177.858 148.41 155.846C141.653 133.88 141.343 111.442 147.482 88.5334C154.032 64.0861 167.276 43.7226 187.213 27.443C207.196 10.9925 229.268 1.78981 253.429 -0.165043C277.636 -2.29086 308.032 1.54776 344.618 11.3508C348.786 -4.20657 348.418 -15.4826 343.512 -22.4773C338.778 -29.4262 326.626 -35.7056 307.057 -41.3155L309.6 -50.8038ZM367.406 260.701C384.331 265.236 398.952 266.405 411.267 264.208C423.629 261.84 435.599 253.412 447.177 238.924C458.8 224.265 468.483 202.489 476.225 173.597C482.409 150.517 484.297 130.134 481.89 112.448C479.654 94.8082 473.992 81.7473 464.904 73.2655C455.987 64.8295 442.063 57.9836 423.133 52.7279L367.406 260.701ZM339.533 30.3274C316.954 25.0103 299.807 24.7219 288.093 29.4621C276.424 34.0313 265.684 43.3388 255.874 57.3845C246.064 71.4302 237.906 90.5912 231.401 114.868C223.935 142.734 221.651 164.935 224.55 181.47C227.494 197.834 233.875 210.263 243.693 218.757C253.727 227.126 267.098 233.64 283.807 238.301L339.533 30.3274Z" fill="#B6F883" fill-opacity="0.42"/>
</svg>
