<?xml version="1.0" encoding="UTF-8"?><!DOCTYPE svg PUBLIC "-//W3C//DTD SVG 1.1//EN" "http://www.w3.org/Graphics/SVG/1.1/DTD/svg11.dtd"><svg xmlns="http://www.w3.org/2000/svg" xmlns:xlink="http://www.w3.org/1999/xlink"><symbol id="calendar" viewBox="0 0 16 16">
    <path d="m1.5 3.33301c0-.27614.22386-.5.5-.5h12c.2761 0 .5.22386.5.5v10.66669c0 .2761-.2239.5-.5.5h-12c-.27614 0-.5-.2239-.5-.5zm1 .5v9.66669h11v-9.66669z"/>
    <path d="m1.5 6c0-.27614.22386-.5.5-.5h12c.2761 0 .5.22386.5.5s-.2239.5-.5.5h-12c-.27614 0-.5-.22386-.5-.5z"/>
    <path d="m4.6665 1.5c.27615 0 .5.22386.5.5v1.33333c0 .27614-.22385.5-.5.5-.27614 0-.5-.22386-.5-.5v-1.33333c0-.27614.22386-.5.5-.5z"/>
    <path d="m11.3335 1.5c.2761 0 .5.22386.5.5v1.33333c0 .27614-.2239.5-.5.5s-.5-.22386-.5-.5v-1.33333c0-.27614.2239-.5.5-.5z"/>
</symbol><symbol id="check" viewBox="0 0 20 20">
<path fill-rule="evenodd" clip-rule="evenodd" d="M14.5202 7.14645C14.7155 7.34171 14.7155 7.65829 14.5202 7.85355L8.33331 14.0404L5.47976 11.1869C5.2845 10.9916 5.2845 10.675 5.47976 10.4798C5.67502 10.2845 5.9916 10.2845 6.18687 10.4798L8.33331 12.6262L13.8131 7.14645C14.0084 6.95118 14.3249 6.95118 14.5202 7.14645Z"/>
<path fill-rule="evenodd" clip-rule="evenodd" d="M1.16669 9.99984C1.16669 5.12132 5.1215 1.1665 10 1.1665C14.8785 1.1665 18.8334 5.12132 18.8334 9.99984C18.8334 14.8784 14.8785 18.8332 10 18.8332C5.1215 18.8332 1.16669 14.8784 1.16669 9.99984ZM10 2.1665C5.67379 2.1665 2.16669 5.67361 2.16669 9.99984C2.16669 14.3261 5.67379 17.8332 10 17.8332C14.3263 17.8332 17.8334 14.3261 17.8334 9.99984C17.8334 5.67361 14.3263 2.1665 10 2.1665Z"/>
</symbol><symbol id="chevron-left" viewBox="0 0 24 24">
<path fill-rule="evenodd" clip-rule="evenodd" d="M15.314 21.5102C15.6563 21.2769 15.7445 20.8103 15.5112 20.468L10.1743 12.6406L15.5112 4.81306C15.7445 4.47082 15.6563 4.00422 15.314 3.77088C14.9718 3.53754 14.5052 3.62582 14.2719 3.96805L8.35879 12.6406L14.2719 21.3131C14.5052 21.6553 14.9718 21.7436 15.314 21.5102Z"/>
</symbol><symbol id="cross" viewBox="0 0 24 24">
<path fill-rule="evenodd" clip-rule="evenodd" d="M20.4706 3.53015C20.763 3.82254 20.763 4.2966 20.4706 4.58899L4.58868 20.4709C4.29629 20.7633 3.82223 20.7633 3.52984 20.4709C3.23745 20.1785 3.23745 19.7044 3.52984 19.412L19.4117 3.53015C19.7041 3.23776 20.1782 3.23776 20.4706 3.53015Z"/>
<path fill-rule="evenodd" clip-rule="evenodd" d="M20.4706 20.4698C20.1782 20.7622 19.7041 20.7622 19.4117 20.4698L3.52984 4.58795C3.23745 4.29556 3.23745 3.8215 3.52984 3.52911C3.82223 3.23672 4.29629 3.23672 4.58868 3.52911L20.4706 19.411C20.763 19.7034 20.763 20.1775 20.4706 20.4698Z"/>
</symbol><symbol id="eye" viewBox="0 0 24 24">
<path fill-rule="evenodd" clip-rule="evenodd" d="M0.118339 12.3231C0.349338 12.596 5.83929 19 12.0002 19C18.1612 19 23.6511 12.596 23.8821 12.3231C24.0271 12.1511 24.0401 11.9021 23.9111 11.7161C23.7221 11.4411 19.1802 5.00011 12.0002 5.00011C5.83929 5.00011 0.349338 11.4041 0.118339 11.6771C-0.0386585 11.8631 -0.0386584 12.1361 0.118339 12.3231ZM12.0002 18C7.06128 18 2.36532 13.29 1.17233 12.0001C2.36332 10.7091 7.05428 6.0001 12.0002 6.0001C17.7792 6.0001 21.8582 10.7031 22.8542 11.9731C21.7042 13.222 16.9812 18 12.0002 18ZM8.00028 12C8.00028 14.206 9.79427 16 12.0002 16C14.2062 16 16.0002 14.206 16.0002 12C16.0002 9.79405 14.2062 8.00006 12.0002 8.00006C9.79427 8.00006 8.00028 9.79405 8.00028 12ZM9.00027 12C9.00027 10.346 10.3463 9.00005 12.0002 9.00005C13.6542 9.00005 15.0002 10.346 15.0002 12C15.0002 13.654 13.6542 15 12.0002 15C10.3463 15 9.00027 13.654 9.00027 12Z"/>
</symbol><symbol id="header-burger" viewBox="0 0 32 32">
<path fill-rule="evenodd" clip-rule="evenodd" d="M8 9H24V11H8V9ZM8 15H24V17H8V15ZM24 21H8V23H24V21Z"/>
</symbol><symbol id="header-close" viewBox="0 0 32 32">
<path fill-rule="evenodd" clip-rule="evenodd" d="M24.1912 8.32249C24.4653 8.59768 24.4653 9.04386 24.1912 9.31905L9.30189 24.2667C9.02777 24.5419 8.58334 24.5419 8.30923 24.2667C8.03511 23.9915 8.03511 23.5453 8.30923 23.2702L23.1985 8.32249C23.4726 8.0473 23.9171 8.0473 24.1912 8.32249Z"/>
<path fill-rule="evenodd" clip-rule="evenodd" d="M24.1912 24.2658C23.9171 24.541 23.4726 24.541 23.1985 24.2658L8.30923 9.31809C8.03512 9.0429 8.03511 8.59673 8.30923 8.32154C8.58335 8.04635 9.02778 8.04635 9.30189 8.32154L24.1912 23.2692C24.4653 23.5444 24.4653 23.9906 24.1912 24.2658Z"/>
</symbol><symbol id="laptop" viewBox="0 0 16 16">
    <path fill-rule="evenodd" clip-rule="evenodd" d="M12.833 5C12.833 4.72386 12.6092 4.5 12.333 4.5L3.66631 4.5C3.39017 4.5 3.16631 4.72386 3.16631 5V11C3.16631 11.2761 3.39017 11.5 3.66631 11.5H12.333C12.6092 11.5 12.833 11.2761 12.833 11V5ZM12.333 3.5C13.1614 3.5 13.833 4.17157 13.833 5V11C13.833 11.8284 13.1614 12.5 12.333 12.5H3.66631C2.83788 12.5 2.16631 11.8284 2.16631 11V5C2.16631 4.17157 2.83788 3.5 3.66631 3.5L12.333 3.5Z"/>
    <path fill-rule="evenodd" clip-rule="evenodd" d="M0.833008 12C0.833008 11.7239 1.05687 11.5 1.33301 11.5H14.6663C14.9424 11.5 15.1663 11.7239 15.1663 12C15.1663 12.2761 14.9424 12.5 14.6663 12.5H1.33301C1.05687 12.5 0.833008 12.2761 0.833008 12Z"/>
    <path fill-rule="evenodd" clip-rule="evenodd" d="M2.16699 11.3335C2.16699 11.0574 2.39085 10.8335 2.66699 10.8335H13.3337C13.6098 10.8335 13.8337 11.0574 13.8337 11.3335C13.8337 11.6096 13.6098 11.8335 13.3337 11.8335H2.66699C2.39085 11.8335 2.16699 11.6096 2.16699 11.3335Z"/>
</symbol><symbol id="logo" viewBox="0 0 165 28">
<path d="M5.59 17.9802H18.94V22.0002H0.43V1.00024H18.43V5.02024H5.59V9.43024H15.64V13.2102H5.59V17.9802ZM39.317 1.00024V5.23024H27.797V22.0002H22.637V1.00024H39.317ZM51.568 0.640244C55.128 0.640244 57.898 1.62024 59.878 3.58024C61.878 5.52024 62.878 8.16024 62.878 11.5002C62.878 14.8402 61.858 17.4902 59.818 19.4502C57.778 21.3902 54.928 22.3602 51.268 22.3602C48.228 22.3602 45.808 21.7202 44.008 20.4402C42.208 19.1402 41.108 17.3102 40.708 14.9502L45.718 14.6802C46.038 15.7202 46.668 16.5602 47.608 17.2002C48.568 17.8402 49.788 18.1602 51.268 18.1602C52.988 18.1602 54.388 17.7202 55.468 16.8402C56.568 15.9602 57.268 14.7502 57.568 13.2102H49.498V9.43024H57.478C57.138 8.03024 56.468 6.92024 55.468 6.10024C54.488 5.26024 53.188 4.84024 51.568 4.84024C50.208 4.84024 49.028 5.13024 48.028 5.71024C47.028 6.29024 46.368 7.06024 46.048 8.02024L41.068 7.69024C41.528 5.51024 42.668 3.79024 44.488 2.53024C46.328 1.27024 48.688 0.640244 51.568 0.640244ZM78.2823 6.28024H83.2023V22.0002H78.2823V16.0002H70.8723V22.0002H65.9523V6.28024H70.8723V11.9502H78.2823V6.28024ZM95.2117 5.92024C97.8717 5.92024 99.9117 6.51024 101.332 7.69024C102.772 8.87024 103.492 10.6602 103.492 13.0602V22.0002H98.9017V19.1202C97.5217 21.2802 95.3117 22.3602 92.2717 22.3602C90.2917 22.3602 88.7817 21.9202 87.7417 21.0402C86.7017 20.1602 86.1817 19.0102 86.1817 17.5902C86.1817 15.9902 86.8317 14.8102 88.1317 14.0502C89.4517 13.2702 91.3717 12.7802 93.8917 12.5802L98.5717 12.2202V12.0102C98.5717 11.1902 98.2917 10.5402 97.7317 10.0602C97.1717 9.58024 96.3317 9.33024 95.2117 9.31024C93.1917 9.31024 92.0317 9.95024 91.7317 11.2302H87.1717C87.2317 10.2502 87.4917 9.41024 87.9517 8.71024C88.4317 7.99024 89.0517 7.44024 89.8117 7.06024C90.5717 6.66024 91.3917 6.37024 92.2717 6.19024C93.1717 6.01024 94.1517 5.92024 95.2117 5.92024ZM93.7417 19.0002C95.1817 19.0002 96.3417 18.6602 97.2217 17.9802C98.1217 17.3002 98.5717 16.5002 98.5717 15.5802V15.0702L94.5517 15.3702C92.2317 15.5702 91.0717 16.2202 91.0717 17.3202C91.0717 17.8402 91.3017 18.2502 91.7617 18.5502C92.2217 18.8502 92.8817 19.0002 93.7417 19.0002ZM122.576 6.28024V10.3302H116.486V22.0002H111.566V10.3302H105.476V6.28024H122.576ZM126.583 20.1702C124.863 18.6902 124.003 16.6802 124.003 14.1402C124.003 11.6002 124.863 9.60024 126.583 8.14024C128.303 6.66024 130.603 5.92024 133.483 5.92024C136.383 5.92024 138.683 6.66024 140.383 8.14024C142.103 9.60024 142.963 11.6002 142.963 14.1402C142.963 16.6802 142.103 18.6902 140.383 20.1702C138.683 21.6302 136.383 22.3602 133.483 22.3602C130.603 22.3602 128.303 21.6302 126.583 20.1702ZM130.093 10.9602C129.293 11.7802 128.893 12.8402 128.893 14.1402C128.893 15.4402 129.293 16.5102 130.093 17.3502C130.913 18.1702 132.043 18.5802 133.483 18.5802C134.923 18.5802 136.053 18.1702 136.873 17.3502C137.693 16.5102 138.103 15.4402 138.103 14.1402C138.103 12.8402 137.693 11.7802 136.873 10.9602C136.053 10.1202 134.923 9.70024 133.483 9.70024C132.043 9.70024 130.913 10.1202 130.093 10.9602ZM156.614 5.92024C158.914 5.92024 160.794 6.66024 162.254 8.14024C163.714 9.60024 164.444 11.6002 164.444 14.1402C164.444 16.6802 163.714 18.6902 162.254 20.1702C160.814 21.6302 158.954 22.3602 156.674 22.3602C154.094 22.3602 152.144 21.4702 150.824 19.6902V28.0002H145.904V6.28024H150.494V9.04024C151.754 6.96024 153.794 5.92024 156.614 5.92024ZM155.114 18.5802C156.474 18.5802 157.554 18.1802 158.354 17.3802C159.174 16.5602 159.584 15.4802 159.584 14.1402C159.584 12.8002 159.174 11.7302 158.354 10.9302C157.554 10.1102 156.474 9.70024 155.114 9.70024C153.714 9.70024 152.614 10.1102 151.814 10.9302C151.014 11.7302 150.614 12.8002 150.614 14.1402C150.614 15.4802 151.014 16.5602 151.814 17.3802C152.614 18.1802 153.714 18.5802 155.114 18.5802Z"/>
</symbol><symbol id="media-instagram" viewBox="0 0 28 28">
    <path d="m14 2.52326c3.7382 0 4.181.01428 5.6572.08163 1.365.06225 2.1063.29032 2.5996.48204.6535.25397 1.1199.55734 1.6097 1.04722.49.48993.7933.9563 1.0473 1.60978.1917.49332.4198 1.23461.4821 2.59959.0673 1.47624.0816 1.91908.0816 5.65718s-.0143 4.1809-.0816 5.6572c-.0623 1.365-.2904 2.1063-.4821 2.5996-.254.6535-.5573 1.1198-1.0472 1.6097s-.9563.7933-1.6098 1.0473c-.4933.1917-1.2346.4198-2.5996.482-1.476.0674-1.9188.0816-5.6572.0816s-4.18111-.0142-5.65719-.0816c-1.36499-.0622-2.10627-.2903-2.5996-.482-.65348-.254-1.11985-.5574-1.60973-1.0473-.48987-.4899-.7933-.9562-1.04727-1.6097-.19173-.4933-.4198-1.2346-.48204-2.5996-.06736-1.4763-.08164-1.9191-.08164-5.6572s.01428-4.18094.08164-5.65718c.06224-1.36498.29031-2.10627.48204-2.59959.25397-.65348.55734-1.11985 1.04727-1.60973.48988-.48993.95625-.7933 1.60973-1.04727.49333-.19172 1.23461-.41979 2.5996-.48204 1.47624-.06735 1.91909-.08163 5.65719-.08163zm0-2.52251232c-3.8022 0-4.27892.01611612-5.77217.08424852-1.49014.0679658-2.50785.3046508-3.39835.6507028-.92062.357781-1.70137.836481-2.47973 1.614781-.7783.77835-1.257 1.5591-1.614729 2.47972-.346109.8905-.582795 1.90821-.6507607 3.39834-.0681327 1.49324-.08424886 1.96996-.08424886 5.77216s.01611616 4.2789.08424886 5.7722c.0679657 1.4901.3046517 2.5078.6507607 3.3983.357729.9206.836429 1.7014 1.614729 2.4797.77836.7783 1.55911 1.257 2.47973 1.6147.8905.3462 1.90821.5828 3.39835.6508 1.49325.0681 1.96997.0843 5.77217.0843s4.2789-.0162 5.7722-.0843c1.4901-.068 2.5078-.3046 3.3983-.6508.9207-.3577 1.7014-.8364 2.4798-1.6147.7783-.7783 1.257-1.5591 1.6148-2.4797.346-.8905.5827-1.9082.6507-3.3983.0681-1.4933.0842-1.97.0842-5.7722s-.0161-4.27892-.0842-5.77216c-.068-1.49013-.3047-2.50784-.6507-3.39834-.3578-.92062-.8365-1.70137-1.6148-2.47972-.7784-.7783-1.5591-1.257-2.4798-1.614781-.8905-.346052-1.9082-.582737-3.3983-.6507028-1.4933-.0681324-1.97-.08424852-5.7722-.08424852zm.0067 6.81729232c-3.9706 0-7.18926 3.21866-7.18926 7.18916s3.21866 7.1892 7.18926 7.1892c3.9704 0 7.1891-3.2187 7.1891-7.1892s-3.2187-7.18916-7.1891-7.18916zm0 11.85586c-2.5774 0-4.66674-2.0894-4.66674-4.6667s2.08934-4.66665 4.66674-4.66665c2.5773 0 4.6666 2.08935 4.6666 4.66665s-2.0893 4.6667-4.6666 4.6667zm7.4724-10.46444c.9279 0 1.68-.75218 1.68-1.67997 0-.92785-.7521-1.68003-1.68-1.68003-.9278 0-1.68.75218-1.68 1.68003 0 .92779.7522 1.67997 1.68 1.67997z"/>
</symbol><symbol id="media-vk" viewBox="0 0 28 28">
    <path d="m13.7104 21.4409h1.6174s.4853-.0556.7327-.315c.2283-.2409.2188-.6949.2188-.6949s-.0285-2.1124.9705-2.4182c.9895-.3057 2.2645 2.0383 3.6155 2.9371 1.0181.6856 1.7983.5373 1.7983.5373l3.606-.0463s1.8839-.1112.9895-1.5565c-.0761-.1205-.5233-1.0655-2.6831-3.0204-2.2645-2.0476-1.96-1.7141.7707-5.2533 1.6555-2.15877 2.3215-3.46514 2.1122-4.03031-.1998-.53737-1.4177-.3984-1.4177-.3984l-4.0627.0278s-.3044-.03706-.5233.09265c-.2188.12971-.3615.42619-.3615.42619s-.647 1.66771-1.5033 3.08527c-1.8078 2.9926-2.5309 3.1501-2.8259 2.9648-.685-.4355-.5137-1.7418-.5137-2.6683 0-2.89999.4471-4.10444-.8754-4.41946-.4376-.10191-.7707-.17603-1.8934-.1853-1.4462-.01853-2.6736 0-3.3681.33355-.46624.22236-.81828.7134-.59944.7412.2664.03706.87534.15751 1.19884.5837.4186.5559.3996 1.78815.3996 1.78815s.2379 3.40956-.5614 3.83576c-.5518.2872-1.30345-.3058-2.91141-3.0204-.82777-1.38979-1.44621-2.92779-1.44621-2.92779s-.12369-.28722-.33301-.44472c-.25689-.1853-.62796-.24089-.62796-.24089l-3.8534.02779s-.580384.01853-.789704.25942c-.190291.22236-.019029.66709-.019029.66709s3.025623 6.8839 6.441353 10.3583c3.13977 3.1872 6.69827 2.9741 6.69827 2.9741z"/>
</symbol><symbol id="time" viewBox="0 0 16 16">
    <path fill-rule="evenodd" clip-rule="evenodd" d="M8.00033 1.66699C4.50252 1.66699 1.66699 4.50252 1.66699 8.00032C1.66699 11.4981 4.50252 14.3336 8.00033 14.3336C11.4982 14.3336 14.3337 11.4981 14.3337 8.00032C14.3337 4.50252 11.4982 1.66699 8.00033 1.66699ZM0.666992 8.00032C0.666992 3.95023 3.95024 0.666992 8.00033 0.666992C12.0504 0.666992 15.3337 3.95023 15.3337 8.00032C15.3337 12.0504 12.0504 15.3336 8.00033 15.3336C3.95024 15.3336 0.666992 12.0504 0.666992 8.00032Z"/>
    <path fill-rule="evenodd" clip-rule="evenodd" d="M8 2.83301C8.27614 2.83301 8.5 3.05687 8.5 3.33301V7.79257L11.0203 10.3128C11.2155 10.5081 11.2155 10.8247 11.0203 11.0199C10.825 11.2152 10.5084 11.2152 10.3131 11.0199L7.5 8.20678V3.33301C7.5 3.05687 7.72386 2.83301 8 2.83301Z"/>
</symbol><symbol id="verified" viewBox="0 0 16 16">
    <path fill-rule="evenodd" clip-rule="evenodd" d="M11.0204 5.9797C11.2156 6.17496 11.2156 6.49154 11.0204 6.68681L7.00016 10.707L4.97994 8.68681C4.78468 8.49154 4.78468 8.17496 4.97994 7.9797C5.1752 7.78444 5.49179 7.78444 5.68705 7.9797L7.00016 9.29281L10.3133 5.9797C10.5085 5.78444 10.8251 5.78444 11.0204 5.9797Z"/>
    <path fill-rule="evenodd" clip-rule="evenodd" d="M8.00016 1.83325C7.47117 1.83325 7.00573 2.10671 6.73797 2.52233C6.55612 2.8046 6.2636 3.00506 5.97991 3.12257C5.69621 3.24008 5.34762 3.30517 5.01944 3.23416C4.53621 3.1296 4.01373 3.26535 3.63967 3.63941C3.26562 4.01347 3.12987 4.53594 3.23442 5.01917C3.30543 5.34736 3.24034 5.69595 3.12283 5.97965C3.00531 6.26335 2.80485 6.55587 2.52257 6.73773C2.10695 7.00549 1.8335 7.47092 1.8335 7.99992C1.8335 8.52892 2.10695 8.99435 2.52257 9.26211C2.80484 9.44396 3.00531 9.73648 3.12282 10.0202C3.24033 10.3039 3.30541 10.6525 3.23441 10.9806C3.12985 11.4639 3.2656 11.9863 3.63966 12.3604C4.01371 12.7345 4.53619 12.8702 5.01941 12.7657C5.3476 12.6946 5.6962 12.7597 5.97989 12.8773C6.26359 12.9948 6.55612 13.1952 6.73797 13.4775C7.00573 13.8931 7.47117 14.1666 8.00016 14.1666C8.52916 14.1666 8.9946 13.8931 9.26236 13.4775C9.44421 13.1952 9.73672 12.9948 10.0204 12.8773C10.3041 12.7598 10.6527 12.6947 10.9809 12.7657C11.4641 12.8702 11.9866 12.7345 12.3606 12.3604C12.7347 11.9864 12.8705 11.4639 12.7659 10.9807C12.6949 10.6525 12.76 10.3039 12.8775 10.0202C12.995 9.73649 13.1955 9.44397 13.4778 9.26211C13.8934 8.99435 14.1668 8.52892 14.1668 7.99992C14.1668 7.47092 13.8934 7.00549 13.4778 6.73772C13.1955 6.55587 12.995 6.26336 12.8775 5.97966C12.76 5.69597 12.6949 5.34738 12.7659 5.0192C12.8705 4.53597 12.7347 4.01349 12.3607 3.63943C11.9866 3.26537 11.4641 3.12962 10.9809 3.23418C10.6527 3.30518 10.3041 3.24009 10.0204 3.12258C9.73673 3.00507 9.44421 2.8046 9.26236 2.52233C8.99459 2.10671 8.52916 1.83325 8.00016 1.83325ZM5.89732 1.98075C6.34138 1.29147 7.11711 0.833252 8.00016 0.833252C8.88322 0.833252 9.65894 1.29147 10.103 1.98075C10.1437 2.04392 10.2466 2.13388 10.4031 2.1987C10.5596 2.26353 10.696 2.27268 10.7694 2.25679C11.5708 2.0834 12.4434 2.30791 13.0678 2.93232C13.6922 3.55674 13.9167 4.42928 13.7433 5.23067C13.7274 5.30412 13.7366 5.44049 13.8014 5.59698C13.8662 5.75348 13.9562 5.85638 14.0193 5.89708C14.7086 6.34114 15.1668 7.11687 15.1668 7.99992C15.1668 8.88297 14.7086 9.6587 14.0193 10.1028C13.9562 10.1435 13.8662 10.2464 13.8014 10.4029C13.7365 10.5594 13.7274 10.6958 13.7433 10.7692C13.9167 11.5706 13.6922 12.4431 13.0678 13.0675C12.4433 13.6919 11.5708 13.9165 10.7694 13.7431C10.696 13.7272 10.5596 13.7363 10.4031 13.8011C10.2466 13.866 10.1437 13.9559 10.103 14.0191C9.65894 14.7084 8.88322 15.1666 8.00016 15.1666C7.11711 15.1666 6.34138 14.7084 5.89732 14.0191C5.85662 13.9559 5.75371 13.866 5.59721 13.8011C5.4407 13.7363 5.30433 13.7271 5.23088 13.743C4.42949 13.9164 3.55696 13.6919 2.93255 13.0675C2.30813 12.4431 2.08362 11.5706 2.25702 10.7692C2.27291 10.6957 2.26376 10.5593 2.19894 10.4029C2.13412 10.2464 2.04416 10.1435 1.98099 10.1028C1.29171 9.6587 0.833496 8.88297 0.833496 7.99992C0.833496 7.11687 1.29171 6.34114 1.98099 5.89708C2.04416 5.85638 2.13412 5.75347 2.19895 5.59697C2.26377 5.44046 2.27293 5.30409 2.25704 5.23064C2.08364 4.42925 2.30815 3.55672 2.93257 2.93231C3.55698 2.30789 4.42952 2.08338 5.23092 2.25678C5.30436 2.27267 5.44073 2.26351 5.59723 2.19869C5.75372 2.13387 5.85662 2.04392 5.89732 1.98075Z"/>
</symbol></svg>