<?xml version="1.0" encoding="UTF-8"?><!DOCTYPE svg PUBLIC "-//W3C//DTD SVG 1.1//EN" "http://www.w3.org/Graphics/SVG/1.1/DTD/svg11.dtd"><svg xmlns="http://www.w3.org/2000/svg"><symbol id="calendar" viewBox="0 0 16 16"><path d="M2 3.333h12V14H2V3.333z" stroke="#000" stroke-linejoin="round"/><path d="M14 6H2M4.667 3.333V2M11.334 3.333V2" stroke="#000" stroke-linecap="round"/></symbol><symbol id="laptop" viewBox="0 0 16 16"><rect x="13.333" y="4" width="8" height="10.667" rx="1" transform="rotate(90 13.333 4)" stroke="#000" stroke-linecap="round" stroke-linejoin="round"/><path d="M1.333 12h13.333M2.667 11.333h10.667" stroke="#000" stroke-linecap="round"/></symbol><symbol id="media-instagram" viewBox="0 0 28 28"><path fill-rule="evenodd" clip-rule="evenodd" d="M14 2.523c3.738 0 4.181.015 5.657.082 1.365.062 2.107.29 2.6.482.653.254 1.12.557 1.61 1.047.49.49.793.956 1.047 1.61.191.493.42 1.235.482 2.6.067 1.476.081 1.919.081 5.657s-.014 4.18-.081 5.657c-.062 1.365-.29 2.106-.482 2.6a4.338 4.338 0 0 1-1.047 1.61c-.49.49-.957.793-1.61 1.047-.494.191-1.235.42-2.6.482-1.476.067-1.919.081-5.657.081s-4.181-.014-5.657-.082c-1.365-.062-2.106-.29-2.6-.482a4.338 4.338 0 0 1-1.61-1.047 4.338 4.338 0 0 1-1.047-1.61c-.192-.493-.42-1.234-.482-2.6-.067-1.475-.081-1.918-.081-5.656 0-3.738.014-4.181.081-5.657.062-1.365.29-2.107.482-2.6a4.337 4.337 0 0 1 1.047-1.61c.49-.49.957-.793 1.61-1.047.494-.192 1.235-.42 2.6-.482 1.476-.067 1.919-.082 5.657-.082zm0-2.522c-3.802 0-4.279.016-5.772.084-1.49.068-2.508.305-3.399.65A6.863 6.863 0 0 0 2.35 2.35 6.862 6.862 0 0 0 .736 4.83C.389 5.72.152 6.738.085 8.23.015 9.722 0 10.199 0 14c0 3.802.016 4.279.084 5.772.068 1.49.305 2.508.651 3.398.358.92.836 1.702 1.615 2.48a6.862 6.862 0 0 0 2.48 1.615c.89.346 1.908.582 3.398.65 1.493.069 1.97.085 5.772.085 3.802 0 4.279-.017 5.772-.085 1.49-.068 2.508-.304 3.399-.65a6.862 6.862 0 0 0 2.48-1.615 6.863 6.863 0 0 0 1.614-2.48c.346-.89.583-1.908.65-3.398.069-1.493.085-1.97.085-5.772 0-3.803-.016-4.28-.084-5.772-.068-1.49-.305-2.508-.65-3.399a6.863 6.863 0 0 0-1.616-2.48A6.863 6.863 0 0 0 23.17.736C22.28.39 21.262.153 19.773.085 18.28.017 17.802.001 14 .001zm.007 6.817a7.19 7.19 0 1 0 0 14.378 7.19 7.19 0 0 0 0-14.378zm0 11.856a4.667 4.667 0 1 1 0-9.334 4.667 4.667 0 0 1 0 9.334zm7.472-10.465a1.68 1.68 0 1 0 0-3.36 1.68 1.68 0 0 0 0 3.36z"/></symbol><symbol id="media-vk" viewBox="0 0 28 28"><path fill-rule="evenodd" clip-rule="evenodd" d="M13.71 21.44h1.618s.485-.055.733-.314c.228-.241.218-.695.218-.695s-.028-2.112.97-2.418c.99-.306 2.265 2.038 3.616 2.937 1.018.686 1.799.537 1.799.537l3.606-.046s1.884-.111.99-1.557c-.077-.12-.524-1.065-2.684-3.02-2.265-2.048-1.96-1.714.77-5.253 1.656-2.16 2.322-3.465 2.113-4.03-.2-.538-1.418-.399-1.418-.399l-4.063.028s-.304-.037-.523.092c-.219.13-.361.427-.361.427s-.647 1.667-1.504 3.085c-1.807 2.992-2.53 3.15-2.825 2.965-.686-.436-.514-1.742-.514-2.669 0-2.9.447-4.104-.876-4.42-.437-.101-.77-.175-1.893-.184-1.446-.019-2.674 0-3.368.333-.466.223-.818.714-.6.741.267.037.876.158 1.2.584.418.556.399 1.788.399 1.788s.238 3.41-.561 3.836c-.552.287-1.304-.306-2.912-3.02A24.245 24.245 0 0 1 6.194 7.84s-.124-.287-.333-.445c-.257-.185-.628-.24-.628-.24l-3.853.027s-.58.019-.79.26c-.19.222-.02.666-.02.666s3.026 6.884 6.442 10.359c3.14 3.187 6.698 2.974 6.698 2.974z"/></symbol><symbol id="time" viewBox="0 0 16 16"><path d="M14.834 8A6.833 6.833 0 1 1 1.167 8a6.833 6.833 0 0 1 13.667 0z" stroke="#000"/><path d="M8 3.333V8l2.667 2.667" stroke="#000" stroke-linecap="round"/></symbol></svg>